<?xml version="1.0" encoding="utf-8"?>
<!-- Generator: Adobe Illustrator 25.0.1, SVG Export Plug-In . SVG Version: 6.00 Build 0)  -->
<svg version="1.0" id="katman_1" xmlns="http://www.w3.org/2000/svg" xmlns:xlink="http://www.w3.org/1999/xlink" x="0px" y="0px"
	 viewBox="0 0 800 600" style="enable-background:new 0 0 800 600;" xml:space="preserve">
<style type="text/css">
	.st0{fill:#2DE370;}
	.st1{fill-rule:evenodd;clip-rule:evenodd;fill:#FFFFFF;}
	.st2{fill:#1D1D1B;}
	.st3{fill-rule:evenodd;clip-rule:evenodd;fill:#1D1D1B;}
</style>
<path class="st0" d="M679.2,263.9l-27.9,27.7l46.5,46.2l46.5-46.2l-27.9-27.7H679.2z"/>
<path d="M677.9,281.9c11-11,28.8-11,39.7,0l9.5,9.5l-9.5,9.5c-11,11-28.8,11-39.7,0l-9.5-9.5L677.9,281.9z"/>
<path class="st1" d="M697.8,303c-6.4,0-11.6-5.1-11.6-11.3c0-6.2,5.2-11.3,11.6-11.3s11.6,5.1,11.6,11.3
	C709.4,297.9,704.2,303,697.8,303z"/>
<path d="M697.8,296.3c-2.7,0-4.9-2.2-4.9-4.9c0-2.7,2.2-4.9,4.9-4.9s4.9,2.2,4.9,4.9C702.6,294.1,700.5,296.3,697.8,296.3z"/>
<path class="st2" d="M364.9,282.3h8.5c-0.4-10.9-10.4-19-24.4-19c-13.8,0-24.7,8-24.7,20.2c0,9.7,7,15.5,18.3,18.7l8.9,2.5
	c7.6,2.1,14.4,4.8,14.4,12c0,7.9-7.6,13.1-17.6,13.1c-8.6,0-16.2-3.8-16.9-12h-9c0.8,11.8,10.4,19.9,25.9,19.9
	c16.6,0,26.1-9.2,26.1-20.9c0-13.5-12.8-17.9-20.3-19.9l-7.3-2c-5.4-1.4-14-4.2-14-12c0-6.9,6.3-12,15.9-12
	C357.4,271,364,275.2,364.9,282.3z"/>
<path class="st2" d="M260.7,336.4h8.7V313l9-10.1l25.1,33.5h10.6l-30.3-39.6l30.3-32.6h-11.4l-32.4,35.8h-0.8v-35.8h-8.7V336.4z"/>
<path class="st3" d="M140.6,263.9c18.5,0,31.8,14.2,31.8,37.1S159,338,140.6,338s-31.8-14.2-31.8-37.1S122.1,263.9,140.6,263.9z
	 M140.6,329.9c13.1,0,23.4-10.1,23.4-28.9s-10.3-28.9-23.4-28.9c-13.1,0-23.4,10.1-23.4,28.9S127.4,329.9,140.6,329.9z"/>
<path class="st3" d="M216.1,263.9c18.5,0,31.8,14.2,31.8,37.1S234.6,338,216.1,338s-31.8-14.2-31.8-37.1S197.7,263.9,216.1,263.9z
	 M216.1,329.9c13.1,0,23.4-10.1,23.4-28.9s-10.3-28.9-23.4-28.9c-13.1,0-23.4,10.1-23.4,28.9S203,329.9,216.1,329.9z"/>
<path class="st2" d="M100.8,336.4H58.5v-72.1h8.7v64.4h33.5V336.4z"/>
<path class="st3" d="M398.2,336.2h-8.7v-72.1h24.4c16.9,0,24.5,9.4,24.5,22.1c0,9.6-4.3,17.1-13.5,20.2l16.3,29.8h-10.1L415.8,308
	c-0.6,0-1.2,0-1.8,0h-15.8V336.2z M398.2,271.8v28.3h15.5c11.6,0,16.1-5.3,16.1-14c0-8.7-4.5-14.4-16.2-14.4H398.2z"/>
<path class="st3" d="M463.2,315.8l-7.3,20.4h-9.2l26.5-72.1h9l26.5,72.1h-9.2l-7.3-20.4H463.2z M477.5,275.5l-11.6,32.6h23.7
	l-11.6-32.6H477.5z"/>
<path class="st3" d="M520.2,336.2h8.7v-28.2h15.8c0.6,0,1.2,0,1.8,0l15.2,28.2h10.1l-16.3-29.8c9.2-3.1,13.5-10.6,13.5-20.2
	c0-12.8-7.6-22.1-24.5-22.1h-24.4V336.2z M529,300.2v-28.3h15.4c11.7,0,16.2,5.7,16.2,14.4c0,8.7-4.5,14-16.1,14H529z"/>
<path class="st2" d="M627.8,336.2h-44.1v-72.1h43.5v7.8h-34.8v24.4h32.6v7.8h-32.6v24.5h35.4V336.2z"/>
</svg>
