<svg width="223" height="89" viewBox="0 0 223 89" fill="none" xmlns="http://www.w3.org/2000/svg">
<rect x="0.925293" y="0.746094" width="222" height="88" fill="#F9FBFC"/>
<g clip-path="url(#clip0_2495_14945)">
<path d="M130.573 39.972C131.429 39.972 132.129 40.6649 132.129 41.5117H138.35C138.35 37.2777 134.85 33.8135 130.573 33.8135C126.297 33.8135 122.797 37.2777 122.797 41.5117V43.0513C122.797 47.2853 126.297 50.7495 130.573 50.7495C134.85 50.7495 138.35 47.2853 138.35 43.0513H132.129C132.129 43.8981 131.429 44.5909 130.573 44.5909C129.718 44.5909 129.018 43.8981 129.018 43.0513V41.5117C129.018 40.6649 129.718 39.972 130.573 39.972Z" fill="#1450F0"/>
<path d="M67.5874 33.8135V50.7495H73.8083V49.2099H81.5843V43.0513H73.8083V39.972H83.1396V33.8135H67.5874Z" fill="#1450F0"/>
<path d="M61.367 33.8135H48.9253V50.7495H55.1462V41.5117C55.1462 40.6649 55.846 39.972 56.7014 39.972C57.5567 39.972 58.2566 40.6649 58.2566 41.5117V50.7495H64.4774V36.8928C64.4774 35.1992 63.0777 33.8135 61.367 33.8135Z" fill="#1450F0"/>
<path d="M167.899 33.8135C163.622 33.8135 160.123 37.2777 160.123 41.5117V50.7495H166.343V41.5117C166.343 40.6649 167.043 39.972 167.899 39.972C168.754 39.972 169.454 40.6649 169.454 41.5117V50.7495H175.675V41.5117C175.675 37.2777 172.175 33.8135 167.899 33.8135Z" fill="#1450F0"/>
<path d="M149.236 33.8135C144.959 33.8135 141.46 37.2777 141.46 41.5117V50.7495H147.681V49.2099H150.791V50.7495H157.012V41.5117C157.012 37.2777 153.513 33.8135 149.236 33.8135ZM150.791 43.0513H147.681V41.5117C147.681 40.6649 148.381 39.972 149.236 39.972C150.091 39.972 150.791 40.6649 150.791 41.5117V43.0513Z" fill="#1450F0"/>
<path d="M86.25 39.972H90.5268V50.7495H96.7477V39.972H101.025V33.8135H86.25V39.972Z" fill="#1450F0"/>
<path d="M111.911 39.972C112.766 39.972 113.466 40.6649 113.466 41.5117H119.687C119.687 37.2777 116.188 33.8135 111.911 33.8135C107.634 33.8135 104.135 37.2777 104.135 41.5117C104.135 45.7457 107.634 49.2099 111.911 49.2099C112.766 49.2099 113.466 49.9027 113.466 50.7495C113.466 51.0574 113.388 51.2884 113.233 51.5193H119.609C119.609 51.2884 119.687 50.9805 119.687 50.7495C119.687 46.5155 116.188 43.0513 111.911 43.0513C111.055 43.0513 110.356 42.3585 110.356 41.5117C110.356 40.6649 111.055 39.972 111.911 39.972Z" fill="#1450F0"/>
<path d="M110.356 50.749H104.135C104.135 50.98 104.135 51.2879 104.213 51.5188H110.589C110.433 51.2879 110.356 51.057 110.356 50.749Z" fill="#1450F0"/>
<path d="M104.524 53.0589H119.376C119.454 52.8279 119.532 52.52 119.609 52.2891H104.291C104.368 52.52 104.446 52.8279 104.524 53.0589Z" fill="#1450F0"/>
<path d="M105.146 54.5989H118.598C118.754 54.368 118.909 54.06 118.987 53.8291H104.757C104.912 54.06 105.068 54.368 105.146 54.5989Z" fill="#1450F0"/>
<path d="M106.39 56.138H117.51C117.743 55.907 117.976 55.6761 118.209 55.3682H105.69C105.923 55.6761 106.157 55.907 106.39 56.138Z" fill="#1450F0"/>
<path d="M108.567 57.678H115.332C115.799 57.4471 116.188 57.2161 116.576 56.9082H107.245C107.634 57.2161 108.1 57.4471 108.567 57.678Z" fill="#1450F0"/>
</g>
<defs>
<clipPath id="clip0_2495_14945">
<rect width="126.75" height="23.8644" fill="white" transform="translate(48.9253 33.8135)"/>
</clipPath>
</defs>
</svg>
