<svg width="720" height="200" viewBox="0 0 720 200" fill="none" xmlns="http://www.w3.org/2000/svg">
<path d="M531.317 85.3214C531.273 85.2778 531.208 85.2124 531.164 85.1688C527.589 81.3542 522.598 79 517.061 79C506.206 79 497.399 88.1115 497.399 99.3592C497.399 110.607 506.206 119.718 517.061 119.718C522.729 119.718 527.851 117.233 531.448 113.244C531.448 113.244 531.491 113.223 531.469 113.223C530.489 111.958 525.737 107.381 525.737 107.381H525.562C523.448 109.779 520.44 111.304 517.061 111.304C510.696 111.304 505.53 105.964 505.53 99.3592C505.53 92.7762 510.696 87.414 517.061 87.414C520.44 87.414 523.47 88.9616 525.562 91.3594" fill="#202020"/>
<path d="M475.515 79C464.419 79 455.417 88.1987 455.417 99.5336C455.417 110.868 464.419 120.067 475.515 120.067C486.61 120.067 495.612 110.868 495.612 99.5336C495.634 88.1769 486.631 79 475.515 79ZM475.515 111.566C468.997 111.566 463.722 106.182 463.722 99.5336C463.722 92.8852 468.997 87.5012 475.515 87.5012C482.032 87.5012 487.307 92.8852 487.307 99.5336C487.307 106.182 482.032 111.566 475.515 111.566Z" fill="#202020"/>
<path d="M631.324 79V88.1551H621.45V119.697H611.99V88.1551H602.05V79H631.324V79Z" fill="#202020"/>
<path d="M544.243 79V98.1167L556.733 79H565.67L553.921 96.8524L568.068 119.697H557.779L547.643 105.354L544.221 110.367V119.697H535.044V79H544.243Z" fill="#202020"/>
<path d="M598.345 86.76H579.359V95.1086H594.291V102.781H579.359V111.675H598.345V119.718H569.855V79H598.345V86.76Z" fill="#202020"/>
<path d="M439.526 79H430.392H421.041V118.607V119.718H430.392V118.607V110.084H439.526C446.719 110.084 452.561 103.13 452.561 94.5418C452.561 85.9535 446.719 79 439.526 79ZM435.755 101.648H430.392V86.9998H435.755C439.983 86.9998 444.517 88.6346 444.517 94.3239C444.517 99.7297 440.005 101.648 435.755 101.648Z" fill="#202020"/>
<path d="M277.59 79C266.495 79 257.492 88.1987 257.492 99.5336C257.492 110.868 266.495 120.067 277.59 120.067C288.685 120.067 297.687 110.868 297.687 99.5336C297.687 88.1769 288.685 79 277.59 79ZM277.59 111.566C271.072 111.566 265.797 106.182 265.797 99.5336C265.797 92.8852 271.072 87.5012 277.59 87.5012C284.107 87.5012 289.382 92.8852 289.382 99.5336C289.382 106.182 284.107 111.566 277.59 111.566Z" fill="#202020"/>
<path d="M256.62 79.1743V88.3294H246.746V119.871H237.264V88.3294H227.324V79.1743H256.62Z" fill="#202020"/>
<path d="M367.222 86.9348H348.236V95.2834H363.168V102.956H348.236V111.85H367.222V119.893H338.732V79.1748H367.222V86.9348Z" fill="#202020"/>
<path d="M402.753 79.1748V119.871H394.775L379.168 92.3843C379.189 93.0818 379.211 93.5396 379.233 93.7576C379.32 94.4551 379.342 95.0436 379.342 95.5232V119.893H372.062V79.1748H382.132L395.69 103.174C395.581 101.975 395.516 101.082 395.516 100.471V79.1748H402.753V79.1748Z" fill="#202020"/>
<path d="M309.894 79.1748L309.938 95.7629L325.196 79.1312L333.785 79.1094L319.529 96.9618L335.289 119.828L325.414 119.849L313.556 103.305L309.981 106.749L310.003 119.893L301.197 119.915L301.088 79.1966L309.894 79.1748Z" fill="#202020"/>
<g clip-path="url(#clip0_474_1193)">
<path d="M125.257 88.7621H125.277C125.257 88.6417 125.257 88.5013 125.257 88.3809V88.7621Z" fill="#29AEFF"/>
<path d="M165.21 92.5752H143.097V132.488C143.097 134.375 144.622 135.9 146.508 135.9H161.799C163.685 135.9 165.21 134.375 165.21 132.488V92.5752Z" fill="#2980FE"/>
<path d="M132.421 64H131.678H92.0862C90.1999 64 88.6748 65.5251 88.6748 67.4114V81.2575C88.6748 83.1438 90.1999 84.6689 92.0862 84.6689H101.377H105.069V88.7625V132.589C105.069 134.475 106.595 136 108.481 136H123.009C124.896 136 126.421 134.475 126.421 132.589V88.7625V88.3813V84.6689H130.113H131.618H132.36C138.059 84.6689 142.695 80.0334 142.695 74.3344C142.755 68.6355 138.12 64 132.421 64Z" fill="#2980FE"/>
<path d="M165.229 92.5752V120.428C165.992 120.609 166.775 120.749 167.577 120.87C168.701 121.03 169.865 121.13 171.029 121.15C171.089 121.15 171.149 121.15 171.229 121.15V98.9966C167.878 98.7759 165.229 95.9866 165.229 92.5752Z" fill="url(#paint0_linear_474_1193)"/>
<path d="M171.672 64C155.899 64 143.097 76.8027 143.097 92.5752C143.097 106.14 152.548 117.498 165.23 120.428V92.5752C165.23 89.0234 168.12 86.1338 171.672 86.1338C175.224 86.1338 178.113 89.0234 178.113 92.5752C178.113 95.5652 176.087 98.0736 173.317 98.796C172.796 98.9365 172.234 99.0167 171.672 99.0167V121.15C172.234 121.15 172.776 121.13 173.317 121.11C188.327 120.247 200.247 107.806 200.247 92.5752C200.267 76.8027 187.465 64 171.672 64Z" fill="#2980FE"/>
<path d="M171.672 121.15V99.0162C171.511 99.0162 171.37 99.0162 171.21 98.9961V121.15C171.37 121.15 171.531 121.15 171.672 121.15Z" fill="#2980FE"/>
</g>
<defs>
<linearGradient id="paint0_linear_474_1193" x1="171.68" y1="106.867" x2="165.232" y2="106.867" gradientUnits="userSpaceOnUse">
<stop stop-color="#2980FE"/>
<stop offset="0.9667" stop-color="#6CA8FF"/>
<stop offset="1" stop-color="#2980FE"/>
</linearGradient>
<clipPath id="clip0_474_1193">
<rect width="111.592" height="72" fill="white" transform="translate(88.6748 64)"/>
</clipPath>
</defs>
</svg>
