<svg width="560" height="560" viewBox="0 0 560 560" fill="none" xmlns="http://www.w3.org/2000/svg">
<path d="M375.934 359.132C375.893 359.091 375.831 359.03 375.79 358.989C372.428 355.401 367.733 353.186 362.525 353.186C352.314 353.186 344.031 361.756 344.031 372.336C344.031 382.915 352.314 391.486 362.525 391.486C367.856 391.486 372.674 389.148 376.057 385.396C376.057 385.396 376.098 385.376 376.077 385.376C375.155 384.187 370.685 379.881 370.685 379.881H370.521C368.532 382.136 365.703 383.572 362.525 383.572C356.538 383.572 351.679 378.548 351.679 372.336C351.679 366.144 356.538 361.1 362.525 361.1C365.703 361.1 368.553 362.556 370.521 364.811" fill="white"/>
<path d="M323.446 353.186C313.01 353.186 304.542 361.839 304.542 372.5C304.542 383.162 313.01 391.814 323.446 391.814C333.882 391.814 342.349 383.162 342.349 372.5C342.37 361.818 333.902 353.186 323.446 353.186ZM323.446 383.818C317.315 383.818 312.354 378.753 312.354 372.5C312.354 366.247 317.315 361.182 323.446 361.182C329.576 361.182 334.538 366.247 334.538 372.5C334.538 378.753 329.576 383.818 323.446 383.818Z" fill="white"/>
<path d="M470 353.186V361.797H460.712V391.465H451.814V361.797H442.465V353.186H470V353.186Z" fill="white"/>
<path d="M388.092 353.186V371.167L399.84 353.186H408.246L397.195 369.978L410.501 391.465H400.824L391.29 377.974L388.071 382.69V391.465H379.439V353.186H388.092Z" fill="white"/>
<path d="M438.98 360.485H421.122V368.338H435.166V375.555H421.122V383.92H438.98V391.486H412.183V353.186H438.98V360.485Z" fill="white"/>
<path d="M289.595 353.186H281.005H272.209V390.44V391.486H281.005V390.44V382.423H289.595C296.361 382.423 301.856 375.883 301.856 367.805C301.856 359.727 296.361 353.186 289.595 353.186ZM286.048 374.489H281.005V360.711H286.048C290.026 360.711 294.291 362.249 294.291 367.6C294.291 372.685 290.047 374.489 286.048 374.489Z" fill="white"/>
<path d="M137.279 353.186C126.843 353.186 118.375 361.839 118.375 372.5C118.375 383.162 126.843 391.814 137.279 391.814C147.715 391.814 156.182 383.162 156.182 372.5C156.182 361.818 147.715 353.186 137.279 353.186ZM137.279 383.818C131.148 383.818 126.187 378.753 126.187 372.5C126.187 366.247 131.148 361.182 137.279 361.182C143.409 361.182 148.371 366.247 148.371 372.5C148.371 378.753 143.409 383.818 137.279 383.818Z" fill="white"/>
<path d="M117.556 353.35V361.962H108.268V391.629H99.3493V361.962H90V353.35H117.556Z" fill="white"/>
<path d="M221.587 360.65H203.729V368.502H217.774V375.719H203.729V384.084H221.587V391.65H194.79V353.351H221.587V360.65Z" fill="white"/>
<path d="M255.007 353.351V391.629H247.503L232.823 365.775C232.843 366.431 232.864 366.862 232.884 367.067C232.966 367.723 232.987 368.277 232.987 368.728V391.65H226.139V353.351H235.611L248.364 375.924C248.261 374.797 248.2 373.956 248.2 373.382V353.351H255.007V353.351Z" fill="white"/>
<path d="M167.665 353.351L167.706 368.953L182.058 353.31L190.136 353.289L176.727 370.081L191.551 391.588L182.263 391.609L171.109 376.047L167.747 379.287L167.768 391.65L159.484 391.67L159.382 353.371L167.665 353.351Z" fill="white"/>
<g clip-path="url(#clip0_478_1275)">
<path d="M243.114 215.647H243.153C243.114 215.416 243.114 215.147 243.114 214.916V215.647Z" fill="#29AEFF"/>
<path d="M319.693 222.955H277.309V299.455C277.309 303.071 280.232 305.994 283.847 305.994H313.155C316.77 305.994 319.693 303.071 319.693 299.455V222.955Z" fill="white"/>
<path d="M256.846 168.186H255.423H179.538C175.923 168.186 173 171.109 173 174.725V201.263C173 204.879 175.923 207.802 179.538 207.802H197.346H204.423V215.648V299.648C204.423 303.263 207.346 306.186 210.962 306.186H238.808C242.423 306.186 245.346 303.263 245.346 299.648V215.648V214.917V207.802H252.423H255.308H256.731C267.654 207.802 276.538 198.917 276.538 187.994C276.654 177.071 267.769 168.186 256.846 168.186Z" fill="white"/>
<path d="M319.729 222.955V276.34C321.191 276.686 322.691 276.955 324.23 277.186C326.383 277.494 328.614 277.686 330.845 277.725C330.96 277.725 331.076 277.725 331.23 277.725V235.263C324.806 234.84 319.729 229.494 319.729 222.955Z" fill="url(#paint0_linear_478_1275)"/>
<path d="M332.078 168.186C301.847 168.186 277.309 192.725 277.309 222.956C277.309 248.956 295.424 270.725 319.732 276.34V222.956C319.732 216.148 325.27 210.609 332.078 210.609C338.886 210.609 344.424 216.148 344.424 222.956C344.424 228.686 340.539 233.494 335.232 234.879C334.232 235.148 333.155 235.302 332.078 235.302V277.725C333.155 277.725 334.193 277.686 335.232 277.648C364.001 275.994 386.847 252.148 386.847 222.956C386.886 192.725 362.347 168.186 332.078 168.186Z" fill="white"/>
<path d="M332.077 277.724V235.301C331.769 235.301 331.5 235.301 331.192 235.262V277.724C331.5 277.724 331.808 277.724 332.077 277.724Z" fill="white"/>
</g>
<defs>
<linearGradient id="paint0_linear_478_1275" x1="332.093" y1="250.348" x2="319.735" y2="250.348" gradientUnits="userSpaceOnUse">
<stop stop-color="white"/>
<stop offset="0.9667" stop-color="#DFDFDF"/>
<stop offset="1" stop-color="white"/>
</linearGradient>
<clipPath id="clip0_478_1275">
<rect width="213.885" height="138" fill="white" transform="translate(173 168.186)"/>
</clipPath>
</defs>
</svg>
